<?xml version="1.0" encoding="UTF-8"?>
<!DOCTYPE svg PUBLIC "-//W3C//DTD SVG 1.1//EN" "http://www.w3.org/Graphics/SVG/1.1/DTD/svg11.dtd">
<!-- Creator: CorelDRAW -->
<svg xmlns="http://www.w3.org/2000/svg" xml:space="preserve" width="6.72in" height="6.72in" style="shape-rendering:geometricPrecision; text-rendering:geometricPrecision; image-rendering:optimizeQuality; fill-rule:evenodd; clip-rule:evenodd"
viewBox="0 0 6.72 6.72"
 xmlns:xlink="http://www.w3.org/1999/xlink">
 <defs>
  <style type="text/css">
   <![CDATA[
    .fil0 {fill:black}
    .fil1 {fill:#FFFFFE;fill-rule:nonzero}
   ]]>
  </style>
 </defs>
 <rect class="fil0" width="6.72" height="6.72"/>
 <g id="Layer_x0020_1">
  <metadata id="CorelCorpID_0Corel-Layer"/>
  <g id="_203002696">
   <path id="_203002480" class="fil1" d="M0.801965 2.72499l0.27135 -1.58635 0.078752 0.013437 -0.0788543 -0.0134882c0.00614173,-0.0359055 0.0353346,-0.0621024 0.0697992,-0.0660118l1.58613 -0.271315 -1.9685e-005 -0.000106299c0.0269921,-0.00461811 0.0531299,0.00487402 0.0708858,0.023126l3.09655 3.09655 3.93701e-006 -3.93701e-006c0.0312402,0.0312402 0.0312402,0.0818937 0,0.113134l-0.000295276 0.000287402 -1.86232 1.86232 3.93701e-006 3.93701e-006c-0.0312402,0.0312402 -0.0818937,0.0312402 -0.113134,0l-0.000287402 -0.000295276 -3.09709 -3.09709 -3.93701e-006 3.93701e-006c-0.0201339,-0.0201339 -0.0272874,-0.0483268 -0.0214685,-0.0741969zm0.419315 -1.5037l-0.255543 1.49394 3.01165 3.01165 1.74948 -1.74948 -3.01165 -3.01165 -1.49394 0.255543z"/>
   <path id="_203002144" class="fil1" d="M1.44049 1.46484l3.93701e-006 -3.93701e-006c0.0689173,-0.0689173 0.159244,-0.103378 0.249559,-0.103378 0.0903189,0 0.180642,0.0344606 0.249563,0.103378l3.93701e-006 3.93701e-006c0.0689173,0.0689173 0.103382,0.159248 0.103382,0.249563 0,0.0903189 -0.0344646,0.180646 -0.103382,0.249567l-3.93701e-006 3.93701e-006c-0.0689173,0.0689173 -0.159248,0.103378 -0.249563,0.103378 -0.090315,0 -0.180642,-0.0344606 -0.249559,-0.103378l-3.93701e-006 -3.93701e-006c-0.0689213,-0.0689213 -0.103382,-0.159248 -0.103382,-0.249567 0,-0.090315 0.0344606,-0.180646 0.103382,-0.249563zm0.11313 0.113122l-3.93701e-006 3.93701e-006c-0.0376693,0.0376693 -0.0565079,0.0870551 -0.0565079,0.136437 0,0.0493858 0.0188386,0.0987717 0.0565079,0.136441l3.93701e-006 3.93701e-006c0.0376654,0.0376654 0.0870512,0.0565039 0.136433,0.0565039 0.0493819,0 0.0987717,-0.0188386 0.136437,-0.0565039l3.93701e-006 -3.93701e-006c0.0376693,-0.0376693 0.0565079,-0.0870551 0.0565079,-0.136441 0,-0.0493819 -0.0188425,-0.0987717 -0.0565079,-0.136437l-3.93701e-006 -3.93701e-006c-0.0376693,-0.0376693 -0.0870512,-0.0565039 -0.136437,-0.0565039 -0.0493819,0 -0.0987677,0.0188386 -0.136433,0.0565039z"/>
   <path id="_203002888" class="fil1" d="M2.0333 3.00756c-0.0312362,-0.0312362 -0.0818898,-0.0312362 -0.113126,0 -0.0312362,0.0312362 -0.0312362,0.0818898 0,0.113126l2.10323 2.10322c0.0312362,0.0312362 0.0818898,0.0312362 0.113126,0 0.0312362,-0.0312362 0.0312362,-0.0818898 0,-0.113126l-2.10323 -2.10322z"/>
   <path id="_203002192" class="fil1" d="M2.6055 2.49722c-0.0312362,-0.0312362 -0.0818898,-0.0312362 -0.113126,0 -0.0312362,0.0312362 -0.0312362,0.0818898 0,0.113126l2.10322 2.10323c0.0312362,0.0312362 0.0818898,0.0312362 0.113126,0 0.0312362,-0.0312362 0.0312362,-0.0818898 0,-0.113126l-2.10322 -2.10323z"/>
   <path id="_203002744" class="fil1" d="M3.1313 1.97141c-0.0312362,-0.0312362 -0.0818898,-0.0312362 -0.113126,0 -0.0312362,0.0312362 -0.0312362,0.0818898 0,0.113126l2.10323 2.10323c0.0312362,0.0312362 0.0818898,0.0312362 0.113126,0 0.0312362,-0.0312362 0.0312362,-0.0818898 0,-0.113126l-2.10323 -2.10323z"/>
  </g>
 </g>
</svg>
