<svg xmlns="http://www.w3.org/2000/svg" viewBox="0 0 64 64"><title>LEAF</title><g id="Layer_24" data-name="Layer 24"><path d="M32.88,43v7.67c.33-.48.7-.93,1.11-1.44a28.75,28.75,0,0,0,2.49-3.41C38.18,43,40.08,40,40.61,35.21a25.49,25.49,0,0,0-.46-8.15,19.91,19.91,0,0,0-2.77-6.55l-.45-.78A94.35,94.35,0,0,1,32,9.74a94.24,94.24,0,0,1-4.93,10l-.45.77a19.93,19.93,0,0,0-2.77,6.55,25.27,25.27,0,0,0-.46,8.14C23.92,40,25.82,43,27.5,45.76A29,29,0,0,0,30,49.21c.42.5.78,1,1.11,1.44V38.3l-3.79-6.83a.87.87,0,1,1,1.53-.85l2.26,4.07V30.5l-3.79-6.83a.87.87,0,1,1,1.53-.85l2.26,4.07V19.75a.88.88,0,0,1,1.75,0V31.58l2.26-4.07a.87.87,0,0,1,1.53.85l-3.79,6.83v4.2l2.26-4.07a.87.87,0,0,1,1.53.85Z"/><path d="M4,4V60H60V4ZM49.5,57.38h-35a.88.88,0,0,1,0-1.75h.88V51.25a.88.88,0,0,1,1.75,0v4.38H18V53.88a.88.88,0,0,1,1.75,0v1.75h.88v-3.5a.88.88,0,0,1,1.75,0v3.5h.88v-.87a.88.88,0,0,1,1.75,0v.88h6c-.08-.5-.18-1-.31-1.58a7.74,7.74,0,0,0-2-3.72A30.36,30.36,0,0,1,26,46.72,25.58,25.58,0,0,1,21.65,35.4a27,27,0,0,1,.49-8.71,21.62,21.62,0,0,1,3-7.07l.45-.77A95.21,95.21,0,0,0,31.19,7.17h0a.9.9,0,0,1,.47-.47h0l.11,0a.59.59,0,0,1,.43,0l.12,0h0a.87.87,0,0,1,.27.18h0a.88.88,0,0,1,.19.28h0a95.31,95.31,0,0,0,5.63,11.69l.45.77a21.6,21.6,0,0,1,3,7.06,27.27,27.27,0,0,1,.49,8.71A25.49,25.49,0,0,1,38,46.68a30.52,30.52,0,0,1-2.65,3.65,7.73,7.73,0,0,0-2,3.71c-.13.55-.22,1.08-.31,1.58h6v-.87a.88.88,0,0,1,1.75,0v.88h.88v-3.5a.88.88,0,0,1,1.75,0v3.5h.88V53.88a.88.88,0,0,1,1.75,0v1.75h.88V51.25a.88.88,0,0,1,1.75,0v4.38h.88a.88.88,0,0,1,0,1.75Z"/></g></svg>